<?xml version="1.0" standalone="no"?>
<!DOCTYPE svg PUBLIC "-//W3C//DTD SVG 20010904//EN"
 "http://www.w3.org/TR/2001/REC-SVG-20010904/DTD/svg10.dtd">
<svg version="1.0" xmlns="http://www.w3.org/2000/svg"
 width="300.000000pt" height="240.000000pt" viewBox="0 0 300.000000 240.000000"
 preserveAspectRatio="xMidYMid meet">
<metadata>
Created by potrace 1.10, written by Peter Selinger 2001-2011
</metadata>
<g transform="translate(0.000000,240.000000) scale(0.100000,-0.100000)"
fill="#000000" stroke="none">
<path d="M1023 1883 c-15 -5 -17 -39 -4 -48 5 -3 12 4 16 15 6 19 15 20 200
20 181 0 225 -6 193 -27 -13 -8 -26 -9 -98 -12 -58 -2 -13 -21 50 -21 56 1 90
16 90 42 0 35 -21 38 -229 37 -114 0 -212 -3 -218 -6z"/>
<path d="M2104 1833 c3 -16 11 -106 17 -200 l12 -173 28 0 c26 0 28 3 33 53 6
54 26 311 26 334 0 9 -18 13 -61 13 l-61 0 6 -27z m75 -71 c-1 -31 -5 -66 -9
-77 -6 -17 -8 -16 -14 10 -11 52 -16 107 -10 116 3 5 12 9 20 9 12 0 15 -12
13 -58z"/>
<path d="M851 1811 c-12 -8 -13 -14 -3 -35 l12 -26 217 2 218 3 3 30 3 30 -18
-23 c-18 -21 -23 -22 -207 -22 -103 -1 -191 1 -193 4 -15 14 15 26 68 26 38 0
58 4 54 10 -8 12 -135 13 -154 1z"/>
<path d="M910 1680 c-13 -8 -15 -60 -14 -380 l2 -370 -68 0 -68 0 7 -27 7 -28
689 0 689 0 7 28 7 27 -71 0 -72 0 3 366 c2 264 -1 370 -9 380 -9 12 -104 14
-553 14 -324 0 -547 -4 -556 -10z m1055 -380 l0 -335 -500 0 -500 0 -3 325
c-1 179 0 331 3 338 3 10 108 12 502 10 l498 -3 0 -335z m-591 -385 c-29 -22
-464 -22 -464 0 0 13 34 15 242 15 215 0 240 -2 222 -15z m644 -3 c6 -19 -451
-13 -470 6 -10 10 34 12 226 10 186 -2 240 -6 244 -16z m-478 -12 c0 -6 -32
-10 -75 -10 -43 0 -75 4 -75 10 0 6 32 10 75 10 43 0 75 -4 75 -10z"/>
<path d="M1307 1490 c-35 -28 -57 -70 -57 -110 0 -60 28 -103 127 -197 l97
-91 86 76 c114 101 133 129 138 203 4 58 4 60 -36 99 -29 30 -48 40 -71 40
-40 0 -87 -24 -102 -51 -11 -21 -11 -20 -38 11 -36 43 -103 53 -144 20z m300
-20 c33 -12 63 -56 63 -94 0 -45 -37 -102 -106 -163 -36 -32 -72 -61 -79 -66
-9 -5 -40 16 -93 63 -81 72 -119 129 -93 138 10 3 11 6 1 12 -17 10 -5 55 20
80 24 24 72 38 78 22 2 -7 12 -12 22 -12 9 0 23 -7 30 -15 17 -20 28 -19 64 8
17 13 38 26 46 30 8 3 15 6 16 6 1 1 14 -4 31 -9z"/>
<path d="M1336 1421 c-10 -11 -16 -26 -13 -33 4 -10 6 -10 6 0 1 7 16 21 34
32 26 17 28 20 11 20 -11 0 -29 -9 -38 -19z"/>
<path d="M2135 1417 c-21 -16 -15 -61 11 -71 39 -15 73 41 42 72 -16 16 -30
15 -53 -1z"/>
<path d="M552 1268 c-25 -25 0 -58 44 -58 17 0 17 1 -1 13 -38 28 -7 37 131
37 88 0 133 4 129 10 -9 15 -288 13 -303 -2z"/>
<path d="M2065 1250 c11 -5 76 -9 144 -9 110 -1 128 -3 160 -23 41 -26 38 -25
86 -27 53 -2 42 -21 -12 -22 -94 -2 -102 -17 -10 -18 71 -1 89 2 94 15 11 29
-22 48 -81 45 -49 -2 -57 1 -72 24 l-16 25 -157 -1 c-96 0 -148 -4 -136 -9z"/>
<path d="M478 1153 c-12 -14 -2 -50 15 -55 7 -1 91 -1 187 2 207 6 191 20 -22
20 -92 0 -148 4 -148 10 0 6 15 10 33 11 17 1 43 4 57 9 18 5 7 8 -43 11 -46
3 -72 0 -79 -8z"/>
<path d="M2336 1115 c-4 -12 -28 -15 -128 -15 -68 0 -130 -5 -138 -10 -10 -7
33 -10 131 -10 116 0 149 3 159 15 12 14 6 35 -10 35 -4 0 -10 -7 -14 -15z"/>
<path d="M1243 642 c-18 -31 -48 -75 -67 -97 l-34 -40 1 50 c2 46 0 50 -22 53
-17 3 -36 -8 -67 -39 -35 -34 -43 -48 -40 -72 6 -49 37 -59 79 -27 14 11 32
20 41 20 8 0 27 16 42 35 36 48 42 37 9 -15 -19 -30 -24 -45 -16 -53 8 -8 23
3 54 36 23 26 46 47 49 47 4 0 1 -15 -7 -34 -13 -30 -13 -36 0 -46 12 -10 19
-10 33 1 37 28 72 63 72 73 0 5 -10 0 -23 -12 -33 -31 -39 -18 -13 28 16 30
18 42 9 51 -9 9 -20 6 -47 -11 -42 -25 -43 -23 -15 25 20 33 21 85 1 85 -4 0
-21 -26 -39 -58z m-113 -77 c0 -7 -6 -18 -14 -22 -8 -4 -15 -17 -17 -27 -5
-26 -29 -33 -29 -8 0 21 36 72 51 72 5 0 9 -7 9 -15z"/>
<path d="M1936 655 c-23 -25 -57 -114 -49 -128 2 -4 9 -4 15 -1 15 10 88 125
88 141 0 21 -29 15 -54 -12z"/>
<path d="M1467 564 c-39 -49 -43 -75 -6 -33 17 20 17 16 -5 -23 -39 -69 -14
-75 43 -10 25 29 49 52 54 52 4 0 -2 -18 -13 -39 -16 -32 -17 -41 -6 -50 10
-8 22 -5 49 13 34 23 36 24 42 6 11 -33 39 -33 98 0 9 5 25 14 34 18 26 13 30
36 5 28 -19 -6 -20 -5 -10 22 15 39 5 62 -29 62 -20 0 -40 -15 -79 -57 -59
-64 -78 -66 -42 -4 18 32 20 43 11 52 -10 10 -21 6 -51 -18 l-38 -30 1 25 c0
41 -19 36 -58 -14z m273 6 c0 -5 -9 -18 -21 -29 -12 -11 -18 -24 -15 -29 3 -5
-1 -15 -8 -21 -34 -29 -22 39 16 86 11 13 28 9 28 -7z"/>
<path d="M1845 490 c-12 -39 25 -57 45 -21 16 30 12 41 -14 41 -16 0 -27 -7
-31 -20z"/>
<path d="M170 320 c0 -6 12 -29 27 -53 15 -24 27 -57 27 -77 1 -25 6 -36 19
-38 14 -3 17 4 17 32 0 19 11 55 25 80 29 52 31 66 10 66 -8 0 -23 -17 -34
-37 l-19 -38 -18 38 c-11 22 -25 37 -36 37 -10 0 -18 -5 -18 -10z"/>
<path d="M335 305 c-34 -33 -35 -102 -2 -133 46 -43 120 -20 131 41 18 94 -67
155 -129 92z m79 -18 c23 -17 19 -85 -6 -101 -42 -26 -84 43 -54 88 18 29 34
32 60 13z"/>
<path d="M480 256 c0 -86 12 -106 64 -106 51 0 66 24 66 109 0 64 -2 72 -17
69 -15 -3 -18 -14 -18 -63 -1 -68 -8 -85 -35 -85 -24 0 -30 19 -30 91 0 46 -3
59 -15 59 -12 0 -15 -15 -15 -74z"/>
<path d="M824 313 c16 -58 39 -140 42 -151 2 -8 12 -12 21 -10 12 2 21 20 29
58 10 52 11 53 18 25 16 -65 23 -80 38 -83 11 -2 21 19 38 83 13 47 20 88 17
91 -15 16 -35 -9 -41 -50 -8 -48 -26 -64 -26 -22 0 37 -18 76 -34 76 -16 0
-26 -21 -26 -58 0 -48 -17 -58 -24 -15 -12 63 -16 73 -37 73 -15 0 -19 -5 -15
-17z"/>
<path d="M1047 324 c-4 -4 -7 -45 -7 -91 0 -72 2 -84 16 -81 13 2 16 18 16 88
0 77 -7 101 -25 84z"/>
<path d="M1108 319 c-32 -18 -18 -89 18 -89 31 0 63 -20 58 -35 -8 -19 -53
-20 -60 0 -7 17 -44 21 -44 5 0 -5 9 -19 20 -30 44 -44 130 -11 116 44 -4 18
-18 28 -48 38 -24 8 -43 21 -43 29 0 20 44 24 51 5 8 -20 34 -21 34 -2 0 38
-62 59 -102 35z"/>
<path d="M1229 326 c-2 -2 -3 -43 -1 -90 3 -66 7 -86 18 -86 10 0 14 12 14 40
0 39 1 40 35 40 33 0 34 -1 32 -37 -1 -29 2 -38 16 -41 15 -3 17 6 17 88 0 82
-2 91 -17 88 -13 -3 -17 -12 -15 -36 2 -30 0 -32 -33 -32 -33 0 -35 2 -35 35
0 31 -15 46 -31 31z"/>
<path d="M1377 323 c-4 -3 -7 -42 -7 -85 l0 -78 60 0 c47 0 60 3 60 15 0 11
-11 15 -40 15 l-40 0 0 70 c0 52 -3 70 -13 70 -8 0 -17 -3 -20 -7z"/>
<path d="M1497 323 c-9 -18 9 -167 21 -171 9 -3 12 19 12 87 0 73 -3 91 -14
91 -8 0 -17 -3 -19 -7z"/>
<path d="M1555 310 c-28 -31 -13 -66 37 -82 24 -8 43 -21 43 -29 0 -20 -39
-23 -55 -4 -15 19 -40 20 -40 2 0 -23 35 -47 68 -47 30 0 72 28 72 49 0 19
-37 50 -70 59 -20 5 -35 15 -35 23 0 20 39 23 55 4 14 -17 40 -20 40 -5 0 6
11 10 25 10 24 0 25 -2 25 -71 0 -62 2 -70 18 -67 14 3 17 14 16 71 l-1 67 29
0 c22 0 29 4 26 17 -2 13 -16 16 -71 17 -49 1 -67 -3 -67 -12 0 -10 -5 -9 -22
2 -31 22 -71 20 -93 -4z"/>
<path d="M1870 240 c0 -83 1 -90 20 -90 19 0 20 7 20 90 0 83 -1 90 -20 90
-19 0 -20 -7 -20 -90z"/>
<path d="M1935 314 c-9 -9 -15 -28 -13 -43 2 -20 12 -29 48 -42 25 -9 45 -23
45 -30 0 -20 -54 -24 -61 -5 -9 23 -34 20 -34 -4 0 -23 28 -40 69 -40 38 0 63
25 59 59 -2 20 -12 29 -48 42 -25 9 -45 23 -45 30 0 20 44 24 51 5 7 -17 44
-22 44 -6 0 20 -41 50 -69 50 -16 0 -37 -7 -46 -16z"/>
<path d="M2120 240 l0 -85 82 1 82 1 -3 54 c-3 63 6 60 23 -8 17 -67 39 -68
58 -1 l16 53 1 -52 c1 -40 5 -53 16 -53 12 0 15 16 15 84 0 75 -2 84 -20 89
-24 6 -35 -11 -45 -71 -9 -53 -14 -49 -30 20 -6 29 -15 52 -18 51 -4 -2 -16
-3 -27 -3 -18 0 -20 -7 -20 -67 l0 -68 -50 3 c-41 3 -50 7 -50 23 0 16 7 19
45 19 33 0 45 4 45 15 0 11 -12 15 -45 15 -33 0 -45 4 -45 15 0 11 12 15 45
15 36 0 45 3 45 18 0 14 -10 17 -60 17 l-60 0 0 -85z"/>
<path d="M2550 308 c0 -13 8 -18 25 -18 24 0 25 -2 25 -70 0 -63 2 -70 20 -70
18 0 20 7 20 70 0 68 1 70 25 70 14 0 25 6 25 13 0 30 54 -81 55 -113 0 -28 4
-35 20 -35 16 0 19 6 17 27 -2 15 9 49 25 80 15 29 29 56 31 61 2 4 -6 7 -17
7 -14 0 -27 -13 -40 -37 l-19 -38 -14 35 -14 35 -92 0 c-81 0 -92 -2 -92 -17z"/>
<path d="M625 238 c0 -71 3 -83 18 -86 14 -3 17 4 17 33 0 34 2 36 28 33 22
-2 28 -8 30 -35 2 -21 9 -33 18 -33 21 0 29 28 18 59 -6 17 -6 36 0 53 15 42
-5 58 -73 58 l-56 0 0 -82z m95 40 c0 -5 0 -12 0 -18 0 -5 -13 -10 -30 -10
-25 0 -30 4 -30 24 0 21 3 23 30 17 17 -3 31 -9 30 -13z"/>
<path d="M2427 238 c1 -67 4 -84 17 -86 12 -3 16 5 16 32 0 33 2 35 36 38 46
4 62 26 48 65 -9 25 -14 28 -64 31 l-55 3 2 -83z m93 32 c0 -12 -10 -19 -30
-22 -27 -4 -30 -2 -30 22 0 24 3 26 30 22 20 -3 30 -10 30 -22z"/>
</g>
</svg>
